<svg width="978px" height="366px" viewBox="-573 0 978 366" version="1.1" xmlns="http://www.w3.org/2000/svg" xmlns:xlink="http://www.w3.org/1999/xlink">
    <text id="בית" stroke="none" fill="none" font-family="LucidaGrande, Lucida Grande" font-size="260" font-weight="normal">
        <tspan x="-573" y="308" fill="#FFFFFF">בית</tspan>
    </text>
    <g id="Group" stroke="none" stroke-width="1" fill="none" fill-rule="evenodd">
        <path d="M234.514,355.811 C234.514,360.306 238.156,363.94 242.643,363.94 L365.238,363.94 C369.725,363.94 373.367,360.307 373.367,355.811 L373.367,195.394 C373.367,190.899 369.725,187.265 365.238,187.265 C360.751,187.265 357.109,190.898 357.109,195.394 L357.109,347.683 L250.771,347.683 L250.771,262.845 C250.771,258.35 247.129,254.716 242.642,254.716 L162.884,254.716 C158.397,254.716 154.755,258.349 154.755,262.845 L154.755,349.512 L47.053,349.512 L47.053,184.445 C47.053,179.95 43.411,176.316 38.924,176.316 C34.437,176.316 30.795,179.949 30.795,184.445 L30.795,357.64 C30.795,362.135 34.437,365.769 38.924,365.769 L162.885,365.769 C167.372,365.769 171.014,362.136 171.014,357.64 L171.014,270.973 L234.514,270.973 L234.514,355.811 Z" id="Shape" fill="#FFFFFF" fill-rule="nonzero"></path>
        <path d="M401.15,159.904 L206.487,2.21 C203.536,-0.188 199.326,-0.22 196.343,2.145 L3.101,154.377 C-0.427,157.157 -1.036,162.262 1.744,165.79 C4.524,169.31 9.645,169.927 13.157,167.139 L201.292,18.931 L390.915,172.529 C392.419,173.74 394.231,174.342 396.028,174.342 C398.393,174.342 400.743,173.31 402.344,171.334 C405.173,167.846 404.637,162.725 401.15,159.904 Z" id="Shape" fill="#FFFFFF" fill-rule="nonzero"></path>
    </g>
</svg>
